<svg width="53" height="43" viewBox="0 0 53 43" fill="none" xmlns="http://www.w3.org/2000/svg">
<rect x="0.5" y="0.5" width="52" height="42" rx="2.5" fill="white" stroke="black"/>
<path d="M11.7931 21.6C11.7931 19.952 12.1611 18.48 12.8971 17.184C13.6491 15.872 14.6651 14.856 15.9451 14.136C17.2411 13.4 18.6891 13.032 20.2891 13.032C22.1611 13.032 23.8011 13.512 25.2091 14.472C26.6171 15.432 27.6011 16.76 28.1611 18.456H24.2971C23.9131 17.656 23.3691 17.056 22.6651 16.656C21.9771 16.256 21.1771 16.056 20.2651 16.056C19.2891 16.056 18.4171 16.288 17.6491 16.752C16.8971 17.2 16.3051 17.84 15.8731 18.672C15.4571 19.504 15.2491 20.48 15.2491 21.6C15.2491 22.704 15.4571 23.68 15.8731 24.528C16.3051 25.36 16.8971 26.008 17.6491 26.472C18.4171 26.92 19.2891 27.144 20.2651 27.144C21.1771 27.144 21.9771 26.944 22.6651 26.544C23.3691 26.128 23.9131 25.52 24.2971 24.72H28.1611C27.6011 26.432 26.6171 27.768 25.2091 28.728C23.8171 29.672 22.1771 30.144 20.2891 30.144C18.6891 30.144 17.2411 29.784 15.9451 29.064C14.6651 28.328 13.6491 27.312 12.8971 26.016C12.1611 24.72 11.7931 23.248 11.7931 21.6ZM36.815 30.168C35.647 30.168 34.591 29.968 33.647 29.568C32.719 29.168 31.983 28.592 31.439 27.84C30.895 27.088 30.615 26.2 30.599 25.176H34.199C34.247 25.864 34.487 26.408 34.919 26.808C35.367 27.208 35.975 27.408 36.743 27.408C37.527 27.408 38.143 27.224 38.591 26.856C39.039 26.472 39.263 25.976 39.263 25.368C39.263 24.872 39.111 24.464 38.807 24.144C38.503 23.824 38.119 23.576 37.655 23.4C37.207 23.208 36.583 23 35.783 22.776C34.695 22.456 33.807 22.144 33.119 21.84C32.447 21.52 31.863 21.048 31.367 20.424C30.887 19.784 30.647 18.936 30.647 17.88C30.647 16.888 30.895 16.024 31.391 15.288C31.887 14.552 32.583 13.992 33.479 13.608C34.375 13.208 35.399 13.008 36.551 13.008C38.279 13.008 39.679 13.432 40.751 14.28C41.839 15.112 42.439 16.28 42.551 17.784H38.855C38.823 17.208 38.575 16.736 38.111 16.368C37.663 15.984 37.063 15.792 36.311 15.792C35.655 15.792 35.127 15.96 34.727 16.296C34.343 16.632 34.151 17.12 34.151 17.76C34.151 18.208 34.295 18.584 34.583 18.888C34.887 19.176 35.255 19.416 35.687 19.608C36.135 19.784 36.759 19.992 37.559 20.232C38.647 20.552 39.535 20.872 40.223 21.192C40.911 21.512 41.503 21.992 41.999 22.632C42.495 23.272 42.743 24.112 42.743 25.152C42.743 26.048 42.511 26.88 42.047 27.648C41.583 28.416 40.903 29.032 40.007 29.496C39.111 29.944 38.047 30.168 36.815 30.168Z" fill="black"/>
</svg>
